<svg xmlns="http://www.w3.org/2000/svg" viewBox="0 0 1200 900">
<defs>
<linearGradient id="bg" x1="0" y1="0" x2="1" y2="1"><stop stop-color="#07111f"/><stop offset="1" stop-color="#111a3a"/></linearGradient>
<linearGradient id="road" x1="0" y1="0" x2="0" y2="1"><stop stop-color="#27344b"/><stop offset="1" stop-color="#101827"/></linearGradient>
</defs>
<rect width="1200" height="900" rx="48" fill="url(#bg)"/>
<text x="70" y="82" fill="#67e8f9" font-family="Arial" font-size="22" font-weight="700" letter-spacing="5">BARTER LABS</text>
<text x="70" y="132" fill="white" font-family="Arial" font-size="48" font-weight="800">PROJECT HELIOS</text>
<text x="70" y="170" fill="#94a3b8" font-family="Arial" font-size="22">AI traffic intelligence for Indian roads</text>
<rect x="70" y="215" width="1060" height="480" rx="30" fill="#08101d" stroke="#24334b"/>
<path d="M300 695 L455 215 H745 L900 695 Z" fill="url(#road)"/>
<path d="M600 215 V695" stroke="#f8fafc" stroke-width="6" stroke-dasharray="28 22" opacity=".55"/>
<path d="M455 215 L300 695 M745 215 L900 695" stroke="#475569" stroke-width="4"/>
<g fill="#38bdf8" stroke="#e0f2fe" stroke-width="3">
<rect x="495" y="500" width="55" height="92" rx="12"/><rect x="650" y="420" width="55" height="92" rx="12"/>
<rect x="560" y="315" width="45" height="75" rx="10"/>
</g>
<g font-family="Arial" font-size="18" font-weight="700">
<rect x="105" y="255" width="220" height="72" rx="18" fill="#0f1d2e" stroke="#164e63"/><text x="130" y="284" fill="#67e8f9">LEFT LANE</text><text x="130" y="312" fill="white">12 min</text>
<rect x="855" y="255" width="220" height="72" rx="18" fill="#0f1d2e" stroke="#164e63"/><text x="880" y="284" fill="#67e8f9">RIGHT LANE</text><text x="880" y="312" fill="white">18 min</text>
<rect x="105" y="590" width="240" height="72" rx="18" fill="#0f1d2e" stroke="#164e63"/><text x="130" y="619" fill="#67e8f9">LANE DEVIATION</text><text x="130" y="647" fill="white">Detected</text>
<rect x="855" y="590" width="220" height="72" rx="18" fill="#0f1d2e" stroke="#164e63"/><text x="880" y="619" fill="#67e8f9">ROAD ANOMALY</text><text x="880" y="647" fill="white">Scanning</text>
</g>
<g fill="none" stroke="#22d3ee" stroke-width="3" opacity=".8"><circle cx="600" cy="455" r="120"/><circle cx="600" cy="455" r="170"/></g>
<text x="600" y="458" text-anchor="middle" fill="white" font-family="Arial" font-size="24" font-weight="800">LIVE AI VISION</text>
<rect x="70" y="735" width="1060" height="95" rx="24" fill="#0b1525" stroke="#1e3a5f"/>
<text x="105" y="777" fill="#94a3b8" font-family="Arial" font-size="17">VISION ENGINE</text><text x="105" y="807" fill="white" font-family="Arial" font-size="23" font-weight="700">Vehicle detection • Lane analysis • Traffic flow • Road anomaly detection</text>
</svg>